<svg width="124" height="15" fill="none" xmlns="http://www.w3.org/2000/svg"><path d="M12.477 2.914H0v-.832c0-.138.014-.278.041-.416h12.436v1.248zM3.12 4.578H0V3.33h3.12v1.248zm0 1.662H0V4.992h3.12V6.24zm0 1.664H0V6.656h3.12v1.248zm0 1.665H0V8.32h3.12v1.248zm0 1.661H0V9.982h3.12v1.248zm9.358 1.665H.041A2.131 2.131 0 010 12.479v-.832h12.477v1.248zm0-11.645H.165C.526.418 1.163.002 2.078.002h10.396V1.25h.003zm0 13.31h-10.4c-.914 0-1.55-.417-1.912-1.25h12.31v1.25h.002zm0-8.32h-7.28V4.992h7.277V6.24h.003zm0 1.664h-7.28V6.656h7.277v1.248h.003zm0 1.665h-3.12V8.32h3.12v1.248zm0 1.661h-3.12V9.982h3.12v1.248zm14.325-8.317H15.368V2.08c0-.137.014-.278.041-.416h11.394v1.249zm-8.319 1.664h-3.119V3.329h3.12v1.248zm8.32 1.662H15.367V4.99h11.435v1.25zm0 1.664H15.367V6.655h11.435v1.248zm-8.32 1.664h-3.119V8.32h3.12v1.248zm0 1.662h-3.119V9.98h3.12v1.248zm8.32 1.664H15.408a2.136 2.136 0 01-.041-.416v-.832h11.435v1.248zm0-11.645h-11.27C15.893.416 16.53 0 17.444 0h9.358v1.248zm0 13.31h-9.358c-.915 0-1.555-.416-1.913-1.249h11.27v1.249zm7.756-13.31h-3.952L29.694 0h3.951l.915 1.248zm0 12.061l-.915 1.249h-3.951l.915-1.249h3.951zm1.204-10.396h-3.951l-.915-1.249h3.951l.915 1.249zm0 8.732l-.915 1.248h-3.951l.915-1.248h3.951zm6.051-8.316l-.895 1.248h-7.903l-.896-1.248h3.952l.895 1.248.896-1.248h3.951zm0 7.9h-3.948L36.97 9.98l-.895 1.248h-3.952l.896-1.248h7.903l.892 1.248zM40.611 4.99l-.915 1.249H34.25l-.915-1.249h7.277zm0 4.577h-7.277l.915-1.248h5.447l.915 1.248zm-1.207-1.664h-4.866l.457-.623-.457-.623h4.866l-.457.623.457.623zm3.64-6.239l-.914 1.249h-3.952l.915-1.249h3.951zm0 11.23h-3.951l-.915-1.249h3.952l.914 1.248zM44.25 0l-.915 1.248h-3.952L40.297 0h3.952zm0 14.558h-3.952l-.915-1.249h3.952l.914 1.249zm6.3-1.248l-.498 1.248h-3.535l.498-1.249h3.536zm.665-1.665l-.499 1.248h-3.535l.498-1.248h3.536zm9.567-.416H47.848l.498-1.248h11.937l.5 1.248zm-.667-1.662H48.512l.498-1.248h10.607l.498 1.248zm-6.903-2.912l-.498 1.248h-3.536l.5-1.248h3.535zm.665-1.665l-.5 1.249h-3.535l.5-1.249h3.535zm4.243-.413h-3.535l-.27-.686-.27.686h-3.536l.5-1.248h6.612l.5 1.248zm-.667-1.664h-6.28l.5-1.249h5.282l.498 1.249zm-.664-1.665H51.84L52.34 0h3.952l.498 1.248zm1.995 4.99H55.25l-.5-1.248h3.535l.5 1.249zm.667 1.665h-3.535l-.499-1.248h3.535l.5 1.248zm1.995 4.99h-3.535l-.499-1.248h3.535l.5 1.248zm.667 1.665h-3.535l-.5-1.249h3.536l.499 1.249zM76.69 1.248H64.38V0h10.398c.914 0 1.55.416 1.912 1.248zm.165 1.665H64.378V1.664h12.436c.027.138.041.279.041.416v.833zm-9.358 1.664h-3.119V3.329h3.12v1.248zm9.193.413c-.361.832-.998 1.249-1.912 1.249H64.38V4.99h12.31zm0 2.913H64.38V6.655h10.398c.914 0 1.55.416 1.912 1.248zm-9.193 1.664h-3.119V8.32h3.12v1.248zm0 1.662h-3.119V9.98h3.12v1.248zm9.358 1.248c0 .138-.014.278-.041.416H64.378v-1.248h12.477v.832zm-.165.832c-.361.833-.998 1.249-1.912 1.249H64.38v-1.249h12.31zm.165-9.148c0 .138-.014.278-.041.416h-3.078V3.329h3.12v.832zm0 5.406h-3.12V8.32h3.079c.027.138.041.278.041.416v.832zm0 1.662h-3.12V9.98h3.12v1.248zm7.757-9.981h-3.951L79.746 0h3.951l.915 1.248zm1.207 1.665h-3.951l-.915-1.249h3.951l.915 1.249zm6.051.416l-.895 1.248h-7.903l-.896-1.248h3.952l.895 1.248.893-1.248h3.954zM90.663 4.99l-.913 1.25H84.3l-.915-1.249h7.278zm-1.206 1.665l-.874 1.248h-3.12l-.873-1.248h4.867zm-.874 2.912h-3.12V8.32h3.12v1.248zm0 1.662h-3.12V9.98h3.12v1.248zm0 1.664h-3.12v-1.248h3.12v1.248zm0 1.665h-3.12v-1.249h3.12v1.249zm4.514-12.894l-.915 1.249H88.23l.915-1.249h3.952zM94.3 0l-.915 1.248h-3.951L90.349 0h3.952zm15.368 1.248H97.191V0h12.477v1.248zm0 1.665H97.191V1.664h12.477v1.249zm-4.469 1.664h-3.119V3.329h3.119v1.248zm0 1.662h-3.119V4.99h3.119v1.25zm0 1.664h-3.119V6.655h3.119v1.248zm0 1.664h-3.119V8.32h3.119v1.248zm0 1.662h-3.119V9.98h3.119v1.248zm0 1.664h-3.119v-1.248h3.119v1.248zm0 1.665h-3.119v-1.249h3.119v1.249zm18.798-11.645h-11.438V2.08c0-.137.014-.278.041-.416h11.395v1.249h.002zm-8.319 1.664h-3.119V3.329h3.119v1.248zm8.319 1.662h-11.438V4.99h11.438v1.25zm0 1.664h-11.438V6.655h11.438v1.248zm-8.319 1.664h-3.119V8.32h3.119v1.248zm0 1.662h-3.119V9.98h3.119v1.248zm8.319 1.664h-11.394a2.097 2.097 0 01-.041-.416v-.832H124v1.248h-.003zm0-11.645h-11.27c.361-.832.998-1.248 1.912-1.248h9.358v1.248zm0 13.31h-9.358c-.914 0-1.554-.416-1.912-1.249h11.27v1.249z" fill="#fff"/></svg>