<svg width="97" height="29" fill="none" xmlns="http://www.w3.org/2000/svg"><path d="M45.64 12.73c0 .51.091 1 .276 1.468a4.054 4.054 0 002.041 2.103c.454.19.929.285 1.425.285v2.585a6.076 6.076 0 01-3.147-.854 6.358 6.358 0 01-2.254-2.367 6.31 6.31 0 01-.85-3.22V0h2.508v6.266h3.743v2.608h-3.743v3.856zm15.427-3.648c.525.216.856.464 1.139.842l-2.757 2.265v1.588c0 .385.458.593.753.34l5.42-4.623c-.598-.922-1.932-1.91-2.894-2.443a6.346 6.346 0 00-3.126-.8 6.45 6.45 0 00-3.235.843 6.459 6.459 0 00-2.383 2.333 6.26 6.26 0 00-.852 3.198 6.37 6.37 0 00.874 3.24 6.749 6.749 0 002.361 2.42 6.283 6.283 0 003.235.886h6.45v-2.57h-6.45c-.524 0-1.02-.094-1.486-.282a3.74 3.74 0 01-1.246-.82 3.695 3.695 0 01-.83-1.297 4.273 4.273 0 01-.307-1.577c0-.519.095-1.008.284-1.47.204-.46.488-.87.853-1.23a3.74 3.74 0 011.246-.822 3.706 3.706 0 011.486-.302c.54 0 1.028.094 1.465.28zM81.472 16.6v2.571H74.88a6.2 6.2 0 01-3.154-.95 6.687 6.687 0 01-2.32-2.399 6.328 6.328 0 01-.855-3.197c0-1.152.285-2.218.854-3.198a6.516 6.516 0 012.365-2.333 6.47 6.47 0 013.241-.842 6.34 6.34 0 013.24.864 6.348 6.348 0 012.366 2.311c.57.965.854 2.031.854 3.198h-2.584c0-.504-.102-.987-.307-1.448a3.695 3.695 0 00-2.102-2.074 3.664 3.664 0 00-1.467-.302c-1.022 0-1.934.374-2.737 1.123-.365.36-.643.778-.832 1.253-.19.461-.285.944-.285 1.448 0 .518.095 1.044.285 1.577.204.519.481.95.832 1.296.788.735 1.7 1.102 2.737 1.102h6.46zm15.42 2.55h-2.593v-6.596c0-.51-.102-1-.307-1.468a3.744 3.744 0 00-.835-1.248 3.756 3.756 0 00-1.253-.833 3.643 3.643 0 00-1.472-.307c-.513 0-1.003.102-1.472.307a3.74 3.74 0 00-1.252.833 4.046 4.046 0 00-.857 1.248c-.19.468-.286.957-.286 1.468v6.617h-2.593V0h2.593v7.384c1.172-.848 2.461-1.271 3.867-1.271a6.32 6.32 0 013.23.854 6.401 6.401 0 012.373 2.345c.571.978.857 2.06.857 3.242v6.595zM43.13 25.427c0-.636.171-1.206.514-1.711.344-.511.81-.91 1.4-1.197a4.517 4.517 0 011.982-.43c.85 0 1.593.171 2.227.514.635.343 1.098.83 1.389 1.459h-1.22a2.199 2.199 0 00-.941-.907c-.403-.212-.888-.318-1.455-.318-.545 0-1.034.106-1.467.318a2.442 2.442 0 00-1.019.907c-.246.386-.37.842-.37 1.365 0 .518.124.973.37 1.366.246.386.586.686 1.019.898.433.212.922.318 1.467.318.567 0 1.052-.103 1.455-.31.41-.211.724-.514.94-.906h1.22a3.121 3.121 0 01-1.387 1.45c-.635.336-1.377.504-2.228.504a4.6 4.6 0 01-1.982-.42 3.508 3.508 0 01-1.4-1.188 2.974 2.974 0 01-.514-1.712zm11.312-3.254v4.124c0 .58.168 1.01.504 1.29.343.281.817.422 1.422.422.597 0 1.063-.14 1.4-.421.343-.28.514-.711.514-1.29v-4.125h1.02v4.115c0 .542-.132 1-.393 1.375a2.348 2.348 0 01-1.063.822 3.89 3.89 0 01-1.49.272c-.552 0-1.052-.09-1.5-.272a2.356 2.356 0 01-1.052-.822c-.254-.375-.38-.833-.38-1.375v-4.115h1.018zM63.307 28h2.732v.691h-3.75v-6.518h1.018v5.826zm9.904-5.827v.692h-2.127v5.826h-1.019v-5.826h-2.138v-.692h5.284zm3.538 0v4.124c0 .58.168 1.01.504 1.29.343.281.817.422 1.422.422.597 0 1.063-.14 1.4-.421.342-.28.514-.711.514-1.29v-4.125h1.019v4.115c0 .542-.13 1-.392 1.375a2.348 2.348 0 01-1.063.822 3.89 3.89 0 01-1.49.272c-.552 0-1.052-.09-1.5-.272a2.356 2.356 0 01-1.052-.822c-.254-.375-.38-.833-.38-1.375v-4.115h1.018zm11.955 6.518l-1.859-2.665h-1.231v2.665h-1.02v-6.518h2.52c.59 0 1.086.084 1.489.252.41.168.717.396.918.683.201.287.302.614.302.982 0 .449-.156.845-.47 1.188-.306.343-.769.57-1.388.682l1.959 2.731h-1.22zm-3.09-3.348h1.5c.552 0 .966-.112 1.243-.337.276-.23.414-.536.414-.916 0-.387-.138-.686-.414-.898-.269-.212-.683-.318-1.243-.318h-1.5v2.47zm8.099-2.478v2.179h2.843v.701h-2.843v2.245h3.18v.701h-4.2v-6.528h4.2v.702h-3.18z" fill="#868686"/><g clip-path="url(#clip0)" fill="#868686"><path d="M0 10.876a.29.29 0 01.19-.271.927.927 0 01.276-.07c1.948-.086 3.898-.155 5.847-.242 1.495-.066 2.989-.153 4.484-.223.551-.026.765.198.75.756 0 .058-.006.116-.006.173-.012 2.693-.053 5.385-.024 8.078.02 1.905.135 3.809.212 5.713.038.933.087 1.866.128 2.799.013.324-.116.54-.346.618a.636.636 0 01-.741-.284.347.347 0 01-.056-.137c-.025-.202-.053-.405-.062-.61-.038-.882-.066-1.762-.103-2.643-.021-.504-.052-1.007-.077-1.51-.025-.491-.053-.98-.076-1.471-.029-.618-.06-1.236-.077-1.855-.03-1.028-.052-2.056-.077-3.084-.012-.465-.044-.932-.038-1.397.01-1.08.041-2.16.055-3.24a.8.8 0 00-.093-.382.477.477 0 00-.465-.268c-.83.041-1.66.078-2.49.118-.122.005-.243.016-.364.02l-2.97.108c-1.124.04-2.248.087-3.372.115a.905.905 0 01-.312-.067.289.289 0 01-.191-.273L0 10.877zm30.445.526c-.02.194-.146.25-.318.246l-2.664-.074-.039-.002c-1.89-.08-3.78-.162-5.67-.244-.223-.01-.415.043-.528.23a.836.836 0 00-.115.41c0 .71.038 1.42.03 2.13-.027 2.15-.046 4.3-.115 6.445-.058 1.815-.183 3.627-.278 5.44-.03.582-.055 1.163-.09 1.744-.014.247-.182.394-.394.466a.588.588 0 01-.576-.096c-.173-.137-.182-.326-.174-.519.142-3.89.394-7.778.395-11.675 0-1.714-.047-3.428-.076-5.142-.006-.367.098-.566.373-.657a.687.687 0 01.245-.034c1.393.066 2.785.138 4.177.203 1.502.07 3.003.135 4.505.197.293.013.588.01.883.033.186.014.393.03.429.286v.613zM23.803 0c.105.136.244.257.31.41.125.291-.11.64-.43.673a2.392 2.392 0 01-.268.006c-3.886-.027-7.773-.067-11.66-.074-1.519-.003-3.04.068-4.56.11-.36.01-.59-.12-.69-.416-.076-.232.047-.481.331-.665A.189.189 0 006.872 0h16.93z"/><path d="M30.445 16.46c0 .047-.014.478-.044.515-.061.077-.389.085-.493.087-1.247.023-2.263.06-3.51.067-.388.003-.691.26-.706.684-.026.761-.044 1.522-.083 2.282-.092 1.788-.19 3.576-.294 5.363-.021.358-.288.595-.625.583-.29-.01-.496-.213-.49-.504.006-.248.039-.497.052-.746l.383-8.126c.014-.169.061-.333.14-.482.082-.161.244-.227.433-.228 1.618-.016 3.044-.036 4.662-.049.146 0 .505.004.563.18M16.192 28.899a.904.904 0 01-.776.016l-.036-.016c-.097 0-.178-.23-.179-.328l-.054-19.446c-.002-1.036.027-2.073.04-3.11.004-.265-.015-.29-.285-.279-2.211.09-4.421.176-6.634.275-1.866.083-3.732.18-5.598.269-.317.015-.464-.11-.584-.384-.12-.274.156-.713.448-.724.376-.014.753-.042 1.13-.057.946-.035 1.892-.06 2.838-.101.957-.042 1.915-.106 2.872-.149 1.302-.059 2.604-.122 3.907-.154a152.84 152.84 0 014.067-.044c.85 0 1.7.043 2.55.073.537.02 1.073.044 1.608.075 1.613.09 3.228.187 4.843.273.504.026 1.01.02 1.515.033.43.013.733.38.627.752-.072.251-.274.4-.57.387-.933-.039-1.866-.088-2.799-.132a7344.2 7344.2 0 00-8.243-.384c-.496-.022-.474-.086-.47.46.019 3.93.05 7.858.044 11.787-.005 3.519-.053 7.038-.083 10.558v.023c-.003.097-.082.327-.178.327zM3.67 15.979c1.004 0 2.009-.003 3.013 0 .366 0 .602.226.618.603.026.62.023 1.241.056 1.86.128 2.454.26 4.907.4 7.36.012.224.016.447.027.671.013.239-.088.422-.307.503-.219.08-.458.063-.616-.13a.84.84 0 01-.194-.436c-.07-1.034-.115-2.068-.173-3.102-.05-.906-.106-1.811-.154-2.718-.047-.925-.088-1.851-.129-2.777-.016-.37-.248-.619-.621-.637-.374-.018-.755-.017-1.133-.025-1.298-.025-2.826-.05-4.125-.074-.357-.007-.337-.223-.348-.567-.01-.309.009-.537.372-.54 1.03-.007 2.284.008 3.314.008z"/></g><defs><clipPath id="clip0"><path fill="#fff" d="M0 0h30.445v28.994H0z"/></clipPath></defs></svg>