<svg width="121" height="29" fill="none" xmlns="http://www.w3.org/2000/svg"><path d="M51.728 27.635a.424.424 0 01-.274-.09.366.366 0 01-.097-.257v-9.861c0-.11.032-.196.097-.257a.386.386 0 01.274-.106h3.661c1.624 0 2.796.343 3.517 1.027.72.675 1.097 1.697 1.129 3.066.01.292.016.684.016 1.178 0 .493-.005.89-.016 1.193-.032.956-.204 1.736-.516 2.34-.301.595-.78 1.037-1.436 1.33-.656.291-1.527.437-2.613.437h-3.742zm3.661-1.283c.742 0 1.329-.096 1.759-.287a1.8 1.8 0 00.951-.906c.205-.423.318-.987.34-1.692.02-.604.031-.981.031-1.132 0-.161-.01-.534-.032-1.118-.021-.996-.274-1.721-.758-2.174-.484-.463-1.274-.695-2.371-.695h-2.371v8.004h2.451zm7.46 1.283a.424.424 0 01-.274-.09.366.366 0 01-.097-.257v-9.861c0-.11.032-.196.097-.257a.387.387 0 01.274-.106h6.662c.107 0 .194.036.258.106a.31.31 0 01.113.257V18c0 .1-.032.186-.097.256a.386.386 0 01-.274.091h-5.484v3.307h5.129a.33.33 0 01.258.106.31.31 0 01.113.257v.558a.339.339 0 01-.113.257.362.362 0 01-.258.09h-5.13v3.429h5.614c.118 0 .21.03.274.09.065.06.097.146.097.257v.589c0 .1-.038.186-.113.257a.362.362 0 01-.258.09h-6.791zm12.641 0c-.291 0-.49-.13-.597-.392l-3.597-9.71-.033-.167c0-.08.032-.15.097-.21a.32.32 0 01.226-.092h.839c.204 0 .35.091.435.272l3.145 8.563 3.162-8.563c.022-.06.07-.12.145-.18a.424.424 0 01.275-.092h.838a.32.32 0 01.226.091c.075.06.113.13.113.211l-.032.167-3.614 9.71c-.107.262-.3.392-.58.392h-1.049zm7.585 0a.424.424 0 01-.274-.09.366.366 0 01-.097-.257v-9.861c0-.11.032-.196.097-.257a.387.387 0 01.274-.106h6.662c.108 0 .194.036.258.106a.31.31 0 01.113.257V18c0 .1-.032.186-.097.256a.386.386 0 01-.274.091h-5.484v3.307h5.13a.33.33 0 01.257.106.31.31 0 01.113.257v.558a.339.339 0 01-.113.257.362.362 0 01-.258.09h-5.13v3.429h5.614c.118 0 .21.03.274.09.065.06.097.146.097.257v.589c0 .1-.038.186-.113.257a.363.363 0 01-.258.09h-6.79zm9.782 0a.424.424 0 01-.274-.09.366.366 0 01-.097-.257v-9.876c0-.1.032-.181.097-.242a.386.386 0 01.274-.106h.855c.108 0 .194.036.258.106.076.06.113.141.113.242v8.91h5.356c.118 0 .21.035.274.105a.31.31 0 01.113.257v.604c0 .1-.038.186-.113.257a.424.424 0 01-.274.09h-6.582zm12.626.151c-1.409 0-2.5-.342-3.275-1.027-.763-.694-1.167-1.736-1.21-3.125-.01-.303-.016-.73-.016-1.284s.006-.977.016-1.269c.043-1.359.463-2.39 1.259-3.095.795-.715 1.871-1.073 3.226-1.073 1.344 0 2.414.358 3.21 1.073.795.704 1.215 1.736 1.258 3.095.021.584.032 1.007.032 1.269 0 .252-.011.68-.032 1.284-.043 1.389-.452 2.43-1.226 3.125-.764.685-1.844 1.027-3.242 1.027zm0-1.283c.849 0 1.527-.242 2.032-.725.506-.483.78-1.223.823-2.22.021-.604.032-1.007.032-1.208 0-.222-.011-.624-.032-1.208-.043-.997-.323-1.737-.839-2.22-.505-.483-1.177-.725-2.016-.725-.85 0-1.533.242-2.049.725-.505.483-.779 1.223-.822 2.22-.011.292-.017.695-.017 1.208 0 .503.006.906.017 1.208.043.997.317 1.737.822 2.22.516.483 1.199.725 2.049.725zm7.222 1.132a.424.424 0 01-.274-.09.369.369 0 01-.097-.257v-9.861a.34.34 0 01.097-.257.386.386 0 01.274-.106h4.097c1.216 0 2.173.277 2.872.831.699.554 1.048 1.354 1.048 2.401 0 1.047-.349 1.848-1.048 2.401-.689.544-1.646.816-2.872.816h-2.855v3.775c0 .1-.037.186-.113.257a.422.422 0 01-.274.09h-.855zm4.017-5.39c.785 0 1.376-.167 1.774-.5.409-.331.613-.815.613-1.449 0-.634-.199-1.117-.597-1.45-.398-.342-.995-.513-1.79-.513h-2.791v3.911h2.791zm-58.383-7.748a.485.485 0 01-.304-.098 1.04 1.04 0 01-.24-.224l-.656-.786c-.555.224-1.222.337-2 .337-1.387 0-2.465-.318-3.233-.954-.757-.646-1.157-1.614-1.2-2.905-.01-.28-.016-.678-.016-1.192 0-.514.005-.907.016-1.179.043-1.262.459-2.22 1.248-2.876.79-.664 1.85-.996 3.184-.996 1.345 0 2.406.332 3.185.996.79.655 1.205 1.614 1.248 2.876.021.543.032.936.032 1.179 0 .234-.01.631-.032 1.192-.043 1.282-.427 2.24-1.152 2.876l1.056 1.32a.316.316 0 01.048.154v.028c0 .065-.032.121-.096.168a.33.33 0 01-.224.084h-.864zm-3.2-1.964c.842 0 1.514-.224 2.016-.673.512-.45.789-1.137.832-2.063.021-.56.032-.935.032-1.122 0-.206-.011-.58-.032-1.122-.043-.926-.32-1.614-.832-2.063-.502-.449-1.174-.673-2.017-.673-.842 0-1.514.224-2.016.673-.501.45-.773 1.137-.816 2.063-.01.27-.016.645-.016 1.122 0 .468.005.842.016 1.122.043.926.315 1.614.816 2.063.502.449 1.174.673 2.016.673zm5.857 1.052a.33.33 0 01-.224-.084.254.254 0 01-.096-.196c0-.075.005-.127.016-.155l3.968-9.077c.086-.206.256-.308.512-.308h1.088c.257 0 .427.102.513.308l3.952 9.077.032.155c0 .075-.032.14-.096.196a.33.33 0 01-.224.084h-.816a.455.455 0 01-.272-.07.441.441 0 01-.128-.168l-.88-1.992h-5.249l-.88 1.992a.405.405 0 01-.144.168.424.424 0 01-.256.07h-.816zm6.88-3.437l-2.16-4.98-2.16 4.98h4.32zm4.224 3.437a.44.44 0 01-.272-.084.346.346 0 01-.096-.252v-.604c0-.121.021-.22.064-.294a3.14 3.14 0 01.176-.225l5.953-7.14h-5.681a.44.44 0 01-.272-.085.329.329 0 01-.096-.239v-.56a.3.3 0 01.096-.24.398.398 0 01.272-.097h7.249c.117 0 .208.032.272.098a.28.28 0 01.112.238v.604a.454.454 0 01-.064.252c-.032.066-.08.145-.144.239l-5.905 7.169h5.889c.117 0 .208.032.272.098a.28.28 0 01.112.238v.562a.306.306 0 01-.112.238.4.4 0 01-.272.084H72.1zm-33.488.461a13.159 13.159 0 00-2.017-5.688c-1.115-1.746-2.633-3.26-4.452-4.443h-.208l.074-.085a16.578 16.578 0 00-4.28-1.93 19.085 19.085 0 00-1.405-.347 17.682 17.682 0 00-3.1-.345h-.818c-3.212.07-6.324 1.015-8.92 2.707h.143l-.177.022c-.49.32-.96.666-1.405 1.035a14.935 14.935 0 00-2.042 2.049l.544.606 1.38 1.537.103.114.946 1.052.793.884 1.941 2.162.598.666 1.324 1.479 1.102 1.228.838.933 2.495 2.78 2.425 2.706.172.192 1.859 2.07.06.066.674.75.567.632 1.358 1.512a16.48 16.48 0 002.952-1.507 15.258 15.258 0 003.252-2.827c.245-.286.48-.58.704-.883 1.412-1.924 2.277-4.128 2.519-6.419a12.414 12.414 0 000-2.708zm-2.96 2.706a10.573 10.573 0 01-1.22 3.713c-1.003 1.829-2.525 3.39-4.415 4.529l-.67-.749-.851-.944-.114-.131-1.838-2.05-.588-.658-3.336-3.71-1.103-1.228-1.323-1.478-.614-.684-1.925-2.144-.793-.885-1.147-1.277-1.283-1.43-.18-.2-.352-.394c1.47-1.258 3.252-2.188 5.2-2.713a13.882 13.882 0 012.183-.406h2.927l.012-.014c.045.004.089.008.132.014h.322l.074.047c1.948.262 3.802.921 5.42 1.926a12.68 12.68 0 012.213 1.74 11.723 11.723 0 011.432 1.7 10.7 10.7 0 011.838 4.719c.048.368.077.74.085 1.118v.233c.002.453-.027.906-.085 1.356z" fill="#868686"/><path d="M26.679 28.614c-1.152.247-2.33.373-3.512.376l-1.087-1.25c-1.44.594-2.97.983-4.537 1.152-3.538.392-7.116-.345-10.14-2.088a16.307 16.307 0 01-.924-.575 15.216 15.216 0 01-3.914-3.793 13.748 13.748 0 01-2.492-6.557 13.287 13.287 0 010-2.765 13.718 13.718 0 012.472-6.557c.166-.235.34-.466.52-.691a15.285 15.285 0 013.375-3.1c.261-.178.528-.347.8-.508A16.485 16.485 0 0114.787 0h1.818c.255.013.51.032.762.057a14.506 14.506 0 00-5.6 3.179c-.94.28-1.843.662-2.687 1.137a12.79 12.79 0 00-2.862 2.184A12.06 12.06 0 004.97 8.054a11.227 11.227 0 00-1.976 5.06 10.948 10.948 0 00.529 4.986 11.624 11.624 0 002.72 4.334 12.803 12.803 0 003 2.25 13.279 13.279 0 004.572 1.491l.078.053h.359c.96.1 1.93.1 2.89 0a13.546 13.546 0 002.45-.486l.018-.005.184-.056.156-.05.163-.055.068-.023-2.711-3.119h3.838l1.578 1.814 1.098 1.262.617.711-.03.003h.033l.112.129 1.963 2.26zm4.669-13.18a13.277 13.277 0 01-1.02 5.104h-3.127a10.88 10.88 0 001.28-5.09 10.878 10.878 0 00-1.56-5.615 11.778 11.778 0 00-1.702-2.197l-.09-.09a12.5 12.5 0 00-2.22-1.76 12.87 12.87 0 00-1.566-.83 15.075 15.075 0 015.343.267 14.653 14.653 0 012.15 2.411 13.483 13.483 0 012.512 7.8z" fill="#868686"/></svg>