<svg width="100" height="41" fill="none" xmlns="http://www.w3.org/2000/svg"><path d="M33.64 22.623v-7.126h-4.095v7.126h-1.583V7.058h1.584v6.946h4.094V7.058h1.584v15.565H33.64zm3.408 0V7.058h1.56v15.565h-1.56zm6.842-6.877V14.32h3.325v8.077c-.452.12-.965.218-1.538.294-.573.075-1.093.113-1.56.113-1.117 0-1.954-.196-2.512-.588-.543-.408-.92-1.162-1.131-2.263-.211-1.1-.317-2.805-.317-5.112 0-2.293.106-3.99.317-5.09.211-1.101.596-1.856 1.154-2.263.558-.407 1.425-.61 2.601-.61a11.7 11.7 0 011.561.112 6.95 6.95 0 011.403.317v1.335c-.422-.09-.867-.166-1.335-.226a8.645 8.645 0 00-1.086-.09c-.965 0-1.644.112-2.036.339-.377.226-.64.776-.792 1.651-.15.875-.226 2.383-.226 4.525 0 2.005.053 3.446.158 4.32.106.86.317 1.448.634 1.765.332.317.875.475 1.629.475.633 0 1.169-.068 1.606-.203v-5.452H43.89zm10.44 6.877v-7.126h-4.095v7.126H48.65V7.058h1.584v6.946h4.095V7.058h1.583v15.565H54.33zm9.609-6.877V14.32h3.325v8.077c-.452.12-.965.218-1.538.294-.573.075-1.094.113-1.561.113-1.116 0-1.953-.196-2.511-.588-.543-.408-.92-1.162-1.131-2.263-.212-1.1-.317-2.805-.317-5.112 0-2.293.105-3.99.317-5.09.21-1.101.595-1.856 1.153-2.263.558-.407 1.426-.61 2.602-.61.483 0 1.003.037 1.56.112a6.949 6.949 0 011.404.317v1.335a16.55 16.55 0 00-1.335-.226 8.644 8.644 0 00-1.086-.09c-.965 0-1.644.112-2.036.339-.377.226-.641.776-.792 1.651-.15.875-.226 2.383-.226 4.525 0 2.005.053 3.446.158 4.32.106.86.317 1.448.634 1.765.331.317.874.475 1.629.475.633 0 1.168-.068 1.606-.203v-5.452h-1.855zm10.439 6.877l-1.651-6.199h-2.444v6.199H68.7V7.058h3.778c.965 0 1.681.196 2.149.589.468.377.77.89.905 1.538.136.633.204 1.486.204 2.556 0 1.162-.099 2.097-.294 2.806-.197.708-.619 1.214-1.267 1.515l1.832 6.56h-1.629zm-2.081-7.624c.558 0 .965-.113 1.222-.34.271-.226.444-.557.52-.995.075-.437.113-1.078.113-1.923 0-.844-.038-1.478-.113-1.9-.076-.437-.249-.77-.52-.995-.257-.227-.664-.34-1.222-.34h-2.014V15h2.014zm10.886 7.624l-.883-4.321h-3.62l-.86 4.32h-1.583l3.19-15.564H81.6l3.167 15.565h-1.584zM80.558 9.14h-.135l-1.516 7.76h3.167l-1.516-7.76zm5.05-2.082h3.19c1.206 0 2.066.204 2.579.611.528.392.867 1.101 1.018 2.127.15 1.01.226 2.692.226 5.045 0 2.337-.075 4.019-.226 5.045-.151 1.025-.49 1.742-1.018 2.149-.513.392-1.373.588-2.58.588h-3.19V7.058zm3.19 14.117c.724 0 1.229-.113 1.515-.34.287-.226.483-.76.588-1.605.106-.845.159-2.308.159-4.39 0-2.08-.053-3.544-.159-4.388-.105-.845-.301-1.38-.588-1.606-.286-.227-.791-.34-1.515-.34h-1.63v12.669h1.63zm5.275 1.448V7.058H100v1.448h-4.344v5.52h3.801v1.448h-3.8v5.701H100v1.448h-5.927zM28.596 36.197h-.43V27.59h.43v8.606zm-.652-11.294a.42.42 0 01.127-.31.41.41 0 01.31-.136.41.41 0 01.31.136.41.41 0 01.136.31.41.41 0 01-.136.31.422.422 0 01-.31.127.422.422 0 01-.31-.127.422.422 0 01-.127-.31zm3.253 4.692c.281-.668.695-1.195 1.241-1.582a3.066 3.066 0 011.813-.581c.923 0 1.607.262 2.052.787.451.52.679 1.307.684 2.362v5.616h-.43v-5.631c-.005-.923-.193-1.604-.564-2.044-.371-.446-.96-.668-1.766-.668-.742 0-1.386.265-1.932.795-.541.525-.907 1.203-1.098 2.036v5.512h-.43V27.59h.43v2.004zm8.273 0c.28-.668.694-1.195 1.24-1.582a3.066 3.066 0 011.813-.581c.923 0 1.607.262 2.052.787.451.52.68 1.307.684 2.362v5.616h-.43v-5.631c-.004-.923-.193-1.604-.564-2.044-.37-.446-.96-.668-1.765-.668-.743 0-1.387.265-1.933.795-.54.525-.907 1.203-1.098 2.036v5.512h-.43V27.59h.43v2.004zm7.19 2.132c0-.822.156-1.56.47-2.211.317-.658.763-1.17 1.335-1.535a3.581 3.581 0 011.957-.549c.72 0 1.368.178 1.94.533.573.355 1.018.859 1.337 1.511.323.652.487 1.387.493 2.203v.382c0 .827-.157 1.567-.47 2.219a3.608 3.608 0 01-1.336 1.527c-.572.366-1.222.549-1.948.549a3.62 3.62 0 01-1.957-.541 3.637 3.637 0 01-1.336-1.511c-.318-.653-.48-1.384-.485-2.196v-.381zm.43.334c0 .716.14 1.373.42 1.972.287.594.682 1.058 1.186 1.392.509.334 1.09.501 1.742.501.98 0 1.779-.368 2.394-1.105.62-.737.93-1.686.93-2.848v-.246a4.48 4.48 0 00-.43-1.957c-.286-.599-.683-1.066-1.192-1.4a3.004 3.004 0 00-1.718-.509c-.981 0-1.782.374-2.402 1.122-.62.747-.93 1.689-.93 2.823v.255zm10.944 3.452l3.094-7.922h.46l-3.347 8.606h-.422l-3.34-8.606h.46l3.095 7.922zm10.03.684c-.106-.366-.16-.891-.16-1.575a3.451 3.451 0 01-1.391 1.28c-.589.303-1.254.454-1.997.454-.795 0-1.437-.215-1.924-.645-.483-.434-.724-1-.724-1.694 0-.79.355-1.42 1.066-1.893.716-.477 1.665-.72 2.847-.731h2.123v-1.257c0-.721-.227-1.28-.683-1.678-.451-.398-1.098-.597-1.941-.597-.785 0-1.44.202-1.965.605-.524.403-.787.901-.787 1.495l-.43-.016c0-.7.308-1.294.923-1.781.615-.488 1.368-.732 2.259-.732.928 0 1.665.233 2.211.7.546.461.827 1.113.843 1.956V34.2c0 .944.074 1.586.223 1.925v.072h-.493zm-3.548-.263c.806 0 1.498-.18 2.076-.54a3.343 3.343 0 001.313-1.52V31.83h-1.989c-1.23 0-2.171.244-2.823.732-.53.398-.796.893-.796 1.487 0 .525.21.97.629 1.336.419.366.949.55 1.59.55zm6.904-10.665v2.322h1.957v.438h-1.956v6.108c0 .61.098 1.06.294 1.352.201.291.535.437 1.002.437.233 0 .517-.024.851-.071l.072.405c-.175.064-.475.096-.9.096-.625 0-1.073-.173-1.343-.517-.27-.35-.409-.9-.414-1.647V28.03h-1.59v-.438h1.59V25.27h.438zm4.073 10.928h-.43V27.59h.43v8.606zm-.652-11.294c0-.122.043-.226.127-.31a.41.41 0 01.31-.136.41.41 0 01.31.136.41.41 0 01.136.31.41.41 0 01-.135.31.422.422 0 01-.31.127.422.422 0 01-.31-.127.422.422 0 01-.128-.31zm2.172 6.824c0-.822.156-1.56.47-2.211.317-.658.763-1.17 1.335-1.535a3.581 3.581 0 011.957-.549c.721 0 1.368.178 1.94.533.573.355 1.019.859 1.337 1.511.323.652.488 1.387.493 2.203v.382c0 .827-.157 1.567-.47 2.219a3.607 3.607 0 01-1.336 1.527c-.572.366-1.222.549-1.948.549a3.62 3.62 0 01-1.957-.541 3.637 3.637 0 01-1.336-1.511c-.318-.653-.48-1.384-.485-2.196v-.381zm.43.334c0 .716.14 1.373.421 1.972.286.594.681 1.058 1.185 1.392.51.334 1.09.501 1.742.501.98 0 1.779-.368 2.394-1.105.62-.737.93-1.686.93-2.848v-.246a4.48 4.48 0 00-.43-1.957c-.285-.599-.683-1.066-1.192-1.4a3.004 3.004 0 00-1.718-.509c-.98 0-1.782.374-2.402 1.122-.62.747-.93 1.689-.93 2.823v.255zm8.972-2.466c.28-.668.694-1.195 1.24-1.582a3.066 3.066 0 011.814-.581c.922 0 1.606.262 2.052.787.45.52.678 1.307.684 2.362v5.616h-.43v-5.631c-.005-.923-.193-1.604-.565-2.044-.37-.446-.96-.668-1.765-.668-.743 0-1.387.265-1.933.795-.54.525-.907 1.203-1.097 2.036v5.512h-.43V27.59h.43v2.004zm13.147 4.494c0-1.045-.89-1.755-2.672-2.132-1.071-.228-1.816-.52-2.235-.875-.419-.36-.629-.853-.629-1.479 0-.63.266-1.15.796-1.559.535-.408 1.23-.612 2.084-.612.927 0 1.672.223 2.234.668.563.44.844 1.037.844 1.79h-.438c0-.578-.244-1.06-.732-1.448-.487-.387-1.124-.58-1.908-.58-.753 0-1.35.164-1.79.493-.44.328-.66.74-.66 1.232 0 .387.082.692.247.915.164.217.432.416.803.597.371.174.912.344 1.622.509.71.164 1.273.357 1.686.58.414.223.714.488.9.795.185.303.278.674.278 1.114 0 .679-.279 1.225-.836 1.638-.556.414-1.285.62-2.187.62-.965 0-1.744-.217-2.338-.652-.589-.44-.883-1.004-.883-1.694h.43c.042.605.307 1.077.795 1.416.493.334 1.159.501 1.996.501.77 0 1.392-.178 1.87-.533.482-.36.723-.795.723-1.304z" fill="#868686"/><path fill-rule="evenodd" clip-rule="evenodd" d="M2.715 5.43a2.715 2.715 0 100-5.43 2.715 2.715 0 000 5.43zM4.58 7.4a2.714 2.714 0 01-4.27-.71V26.9h4.27v-8.758h2.556l.116 8.758h.008a72.916 72.916 0 00-.022 1.83c0 3.234.175 5.66.525 7.277.374 1.595 1.027 2.71 1.96 3.343.934.612 2.334.918 4.201.918.933 0 1.914-.066 2.94-.197 1.027-.131 1.89-.295 2.59-.492V26.797H13.68v3.966h1.47v5.474c-.35.066-.712.099-1.085.099-.653 0-1.12-.164-1.4-.492-.28-.328-.467-.983-.56-1.967-.07-1.005-.105-2.72-.105-5.146 0-2.557.082-4.316.245-5.277.163-.983.467-1.584.91-1.803.467-.24 1.319-.36 2.555-.36.887 0 2.124.109 3.71.327V17.85c-.676-.197-1.481-.35-2.415-.459a18.5 18.5 0 00-2.555-.197c-1.176 0-2.18.107-3.012.32V5.457H7.137v8.603H4.58V7.4z" fill="#868686"/></svg>