<svg width="18" height="18" fill="none" xmlns="http://www.w3.org/2000/svg"><path d="M8.619 11.07C7.075 9.801 6.045 8.235 5.503 7.344l-.404-.762c.14-.152 1.219-1.306 1.686-1.932.586-.786-.264-1.496-.264-1.496S4.126.76 3.58.284C3.035-.19 2.407.075 2.407.075 1.26.813.071 1.457 0 4.556c-.003 2.9 2.2 5.892 4.58 8.208 2.386 2.616 5.66 5.238 8.826 5.235 3.098-.07 3.742-1.26 4.483-2.406 0 0 .264-.628-.21-1.174-.476-.546-2.871-2.94-2.871-2.94s-.71-.852-1.496-.264c-.586.438-1.638 1.412-1.892 1.649 0 0-1.76-.938-2.801-1.795z" fill="#9B9B9B"/></svg>