<svg width="36" height="36" fill="none" xmlns="http://www.w3.org/2000/svg"><rect width="36" height="36" rx="18" fill="#419FD9"/><path fill-rule="evenodd" clip-rule="evenodd" d="M22.002 26.913c1.258.55 1.73-.603 1.73-.603L27.06 9.588c-.026-1.127-1.546-.446-1.546-.446L6.878 16.455s-.891.315-.813.865c.079.55.787.813.787.813l4.691 1.572s1.416 4.64 1.704 5.53c.262.866.498.892.498.892.262.105.498-.079.498-.079l3.04-2.752 4.719 3.617zm.812-14.364s.655-.393.63 0c0 0 .104.053-.237.42-.314.314-7.732 6.972-8.728 7.863a.275.275 0 00-.131.236l-.288 2.464c-.053.262-.394.288-.472.052l-1.232-4.036a.386.386 0 01.157-.446l10.301-6.553z" fill="#fff"/></svg>