<svg width="36" height="36" fill="none" xmlns="http://www.w3.org/2000/svg"><rect width="36" height="36" rx="18" fill="#292929"/><path d="M28.875 26.743l-1.627-1.629c-.171-.085-.257-.343-.257-.514V11.571a.93.93 0 01.257-.6l1.627-1.885V9h-5.823l-4.367 11.057L13.719 9H7.724v.086l1.542 2.143c.342.342.428.857.428 1.285v9.429a2.74 2.74 0 01-.257 1.628l-2.312 3.172v.086h6.165v-.086l-2.312-3.086a2.642 2.642 0 01-.256-1.628v-8.572c.085.172.17.172.256.514L16.801 27h.086l5.651-14.143c-.085.514-.085 1.114-.085 1.543v10.114a.779.779 0 01-.257.6l-1.713 1.629v.086h8.392v-.086z" fill="#fff"/></svg>