<svg width="36" height="36" fill="none" xmlns="http://www.w3.org/2000/svg"><rect width="36" height="36" rx="18" fill="#7AA1BD"/><path d="M7.697 16.483a1.91 1.91 0 011.545-.786l.143.006H9.38c1.18 0 2.094.824 2.094 2.191v3.878H9.59V18.56c0-.698-.362-1.085-.933-1.085-.525 0-.96.361-.96 1.12v3.177H5.814V13.09h1.884v3.392zm10.982 5.289H16.87v-.64a2.029 2.029 0 01-1.613.797l-.091-.002h.004c-1.577 0-2.745-1.374-2.745-3.117 0-1.744 1.168-3.107 2.752-3.107l.08-.002c.656 0 1.24.312 1.61.796l.003.005v-.636h1.809v5.906zm-4.34-2.96a1.266 1.266 0 102.53.001 1.266 1.266 0 00-2.53 0zm11.888-.003c0 1.744-1.172 3.118-2.749 3.118l-.094.002c-.65 0-1.227-.308-1.595-.786l-.004-.004v.633h-1.808V13.09h1.88v3.338a2.01 2.01 0 011.546-.725l.09.002h-.004c1.566-.004 2.738 1.363 2.738 3.103zm-4.46 0a1.266 1.266 0 102.532 0 1.266 1.266 0 00-2.531 0zm9.528-3.016l-.163 1.877a3.124 3.124 0 00-.942-.155h-.002a.955.955 0 00-1.084 1.068v-.005 3.194h-1.889v-5.907h1.809v.68c.31-.51.863-.846 1.495-.846l.124.004h-.006.006a2.4 2.4 0 01.67.095l-.017-.005h-.001z" fill="#fff"/></svg>