<svg xmlns="http://www.w3.org/2000/svg" viewBox="0 0 208 183"><text transform="matrix(.8891 0 0 1 9.955 95.61)" font-size="71.197" font-family="MyriadPro-Regular" fill="#fefefe">NORM</text><path d="M186.2 121.5h2.1c2.8 0 4.2 1.4 4.2 4.1v17c0 2.7-1.4 4.1-4.2 4.1h-2.1c-1.6 0-2.5-.6-2.9-1.7v9.1h-3.6v-32.6h3.6v1.7c.3-1.2 1.3-1.7 2.9-1.7zm2.6 20.5v-15.9c0-.7-.1-1.1-.3-1.3-.2-.2-.6-.3-1.3-.3h-2.1c-.6 0-1.1.1-1.4.4-.3.3-.4.8-.4 1.5v15.4c0 .7.1 1.2.4 1.5.3.3.7.4 1.4.4h2.1c.7 0 1.1-.1 1.3-.3.2-.2.3-.7.3-1.4zm-60.6-20.5h5c2.6 0 3.9 1.3 3.9 4v16.6c0 2.7-1.3 4-3.9 4h-5c-2.6 0-3.9-1.3-3.9-4v-16.6c0-2.7 1.3-4 3.9-4zm5.6 20.1V126c0-.6-.1-1.1-.3-1.3-.2-.2-.6-.3-1.2-.3h-3.1c-.6 0-1 .1-1.2.3-.2.2-.3.6-.3 1.3v15.5c0 .7.1 1.1.3 1.3.2.2.6.3 1.2.3h3.1c.6 0 1-.1 1.2-.3.2-.1.3-.6.3-1.2zm-25.4-20.1h1v3.1H108c-2 0-3.1 1.3-3.1 3.8v17.8h-3.4v-24.7h3.4v2.8c.3-.8.7-1.4 1.3-2 .6-.5 1.4-.8 2.2-.8zm-25.3 0h3.6V150c0 2.7-1.4 4.1-4.2 4.1h-7.9V151h6.8c.7 0 1.1-.1 1.3-.3.2-.2.3-.6.3-1.3V145c-.4 1.1-1.4 1.7-2.9 1.7H78c-2.8 0-4.2-1.4-4.2-4.1v-17c0-2.7 1.4-4.1 4.2-4.1h2.1c1.6 0 2.5.6 2.9 1.7v-1.7zm-3.9 22.1h2.1c.6 0 1.1-.1 1.4-.4.3-.3.4-.8.4-1.5v-15.4c0-.7-.1-1.2-.4-1.5-.3-.3-.7-.4-1.4-.4h-2.1c-.7 0-1.2.1-1.4.3-.2.2-.3.6-.3 1.3v16c0 .7.1 1.1.3 1.4.2.2.7.2 1.4.2zm81.9-22.1h3.6v24.7h-3.6v-1.7c-.4 1.1-1.4 1.7-2.9 1.7h-2.1c-2.8 0-4.2-1.3-4.2-4v-20.7h3.6v20.1c0 .7.1 1.1.3 1.3.2.2.7.3 1.3.3h2.1c.6 0 1.1-.1 1.4-.4.3-.3.4-.7.4-1.4v-19.9z" fill="#fff"/></svg>